<svg id="Layer_1" data-name="Layer 1" xmlns="http://www.w3.org/2000/svg" viewBox="0 0 20 20"><defs><style>.cls-1{fill:#cf2127;}.cls-2{fill:#fff;}</style></defs><title>Artboard 1</title><rect class="cls-1" width="20" height="20"/><path class="cls-2" d="M17.71,7.57s-.43.76-2.12,1c-1.4.2-1.7-.17-1.85-.29l-.34.3v.5a.05.05,0,0,1-.09,0A1.66,1.66,0,0,1,13,8.18c0-.29,0-.58-.05-.79h-.54V9.63a.05.05,0,0,1,0,.05h0a.05.05,0,0,1,0,0A3,3,0,0,1,12,8.33c0-.5,0-1-.06-1.32H3.71A.05.05,0,0,1,3.65,7V6.58a.05.05,0,0,1,.05-.05h8.63a.05.05,0,0,1,.05.05v.33h1a.05.05,0,0,1,.05.05V8l.38-.23h0l0,0s.12.21.67.31a5,5,0,0,0,3.14-.57.05.05,0,0,1,.05.09m-6.91,5a.05.05,0,0,1,.06,0,5.11,5.11,0,0,1,.79.26,3.79,3.79,0,0,1,.63.37h2a.05.05,0,0,1,.05.05v.38a.05.05,0,0,1-.05.05H12l0,0a3.78,3.78,0,0,0-.49-.54,5.49,5.49,0,0,0-.67-.45.05.05,0,0,1,0-.07M18.34,7a.32.32,0,0,0-.25-.13H14V6.63a.32.32,0,0,0-.32-.32H13V6.25a.32.32,0,0,0-.32-.32H3.38a.32.32,0,0,0-.32.32V8a.32.32,0,0,0,.25.31,11.85,11.85,0,0,1,2.22.77c1,.46,2.25,1.22,2.25,2.25,0,.46-.4.82-1.19,1.08a6.31,6.31,0,0,1-1.35.26.32.32,0,0,0-.3.32V14a.32.32,0,0,0,.32.32H7.93a.32.32,0,0,0,.24-.11,2.44,2.44,0,0,1,3.46,0,.32.32,0,0,0,.24.11h2.69a.32.32,0,0,0,.32-.32V13a.32.32,0,0,0-.34-.32,2.9,2.9,0,0,1-1.89-.51,1.08,1.08,0,0,1-.34-.83c0-.67.62-1.08,1.65-1.08a4.29,4.29,0,0,0,3.38-1.43,3.56,3.56,0,0,0,1-1.5A.32.32,0,0,0,18.34,7"/></svg>